<svg xmlns="http://www.w3.org/2000/svg"
  xmlns:xlink="http://www.w3.org/1999/xlink" version="1.1" x="0px" y="0px" viewBox="0 0 100 125" enable-background="new 0 0 100 100" xml:space="preserve">

  <polygon points="59.721,16.174 61.309,16.174 62.897,16.174 62.897,10.512 59.721,10.512  "/>
  <polygon points="75.647,24.849 75.647,23.261 69.985,23.261 69.985,24.849 69.985,26.438 75.647,26.438  "/>
  <polygon points="46.971,24.849 46.971,26.438 52.634,26.438 52.634,23.261 46.971,23.261  "/>
  <polygon points="71.448,14.711 70.325,13.588 66.321,17.592 68.567,19.839 72.571,15.834  "/>
  <polygon points="56.298,17.592 52.294,13.588 51.171,14.711 50.048,15.834 54.052,19.839  "/>
  <path d="M9.71,72.201c2.037,0,3.76-1.308,4.415-3.122h0.773c0.538,5.072,3.62,9.389,7.942,11.662v1.807   c0,3.827,3.114,6.94,6.94,6.94h40.438c3.827,0,6.94-3.114,6.94-6.94v-1.807c4.321-2.273,7.404-6.59,7.942-11.662h0.773   c0.655,1.814,2.378,3.122,4.415,3.122c2.597,0,4.711-2.113,4.711-4.711c0-2.597-2.113-4.711-4.711-4.711   c-2.037,0-3.76,1.308-4.415,3.122h-0.773c-0.538-5.072-3.62-9.389-7.942-11.662v-1.807c0-3.827-3.114-6.94-6.94-6.94H51.917   l0.01-1.235l0.037-4.741l2.526,0.629l7.51,1.868l0.467-10.66c3.094-0.55,5.453-3.254,5.453-6.503c0-3.646-2.966-6.612-6.612-6.612   c-3.645,0-6.611,2.966-6.611,6.612c0,2.944,1.935,5.442,4.599,6.296l-0.061,1.388l-0.239,5.459l-2.739-0.682L48.82,35.46   l-0.079,10.033h-18.96c-3.827,0-6.94,3.114-6.94,6.94v1.807c-4.321,2.273-7.404,6.59-7.942,11.662h-0.773   c-0.655-1.814-2.378-3.122-4.416-3.122C7.113,62.78,5,64.893,5,67.49C5,70.088,7.113,72.201,9.71,72.201z M90.289,65.957   c0.846,0,1.534,0.688,1.534,1.534c0,0.846-0.688,1.534-1.534,1.534c-0.846,0-1.534-0.688-1.534-1.534   C88.756,66.645,89.444,65.957,90.289,65.957z M77.159,57.978c2.934,2.147,4.852,5.606,4.852,9.512c0,3.906-1.917,7.365-4.852,9.512   V57.978z M57.875,24.85c0-1.894,1.541-3.435,3.434-3.435c1.894,0,3.435,1.541,3.435,3.435c0,1.894-1.541,3.434-3.435,3.434   C59.415,28.284,57.875,26.743,57.875,24.85z M26.017,52.433c0-2.075,1.689-3.764,3.764-3.764h40.438   c2.075,0,3.764,1.689,3.764,3.764v30.115c0,2.075-1.689,3.764-3.764,3.764H29.781c-2.075,0-3.764-1.689-3.764-3.764V52.433z    M22.84,57.978v19.024c-2.934-2.147-4.852-5.606-4.852-9.512C17.989,63.584,19.906,60.125,22.84,57.978z M9.71,65.957   c0.846,0,1.534,0.688,1.534,1.534c0,0.846-0.688,1.534-1.534,1.534s-1.533-0.688-1.533-1.534   C8.177,66.645,8.864,65.957,9.71,65.957z"/>
  <path d="M42.506,75.677h1.454c1.563,0,2.841-1.279,2.841-2.841V62.144c0-1.563-1.279-2.841-2.841-2.841h-1.454   c-1.563,0-2.841,1.279-2.841,2.841v10.692C39.664,74.399,40.943,75.677,42.506,75.677z"/>
  <path d="M56.04,75.677h1.454c1.563,0,2.841-1.279,2.841-2.841V62.144c0-1.563-1.279-2.841-2.841-2.841H56.04   c-1.563,0-2.841,1.279-2.841,2.841v10.692C53.199,74.399,54.478,75.677,56.04,75.677z"/>
  <path d="M35.918,82.352h28.163c3.276,0,5.941-2.665,5.941-5.941V58.57c0-3.276-2.665-5.941-5.941-5.941H35.918   c-3.276,0-5.941,2.665-5.941,5.941v17.84C29.977,79.686,32.642,82.352,35.918,82.352z M33.154,58.57   c0-1.524,1.24-2.765,2.765-2.765h28.163c1.524,0,2.765,1.24,2.765,2.765v17.84c0,1.524-1.24,2.765-2.765,2.765H35.918   c-1.524,0-2.765-1.24-2.765-2.765V58.57z"/>

</svg>